# xmcd CD database file
#
# Track frame offsets:
#	150
#	12928
#	24877
#	40309
#	54746
#	70379
#	85304
#	99154
#	111005
#	124463
#	140721
#	155387
#	171686
#	187335
#	202577
#	218296
#	230268
#	243305
#	255220
#	270053
#
# Disc length: 3795 seconds
#
# Revision: 1
# Processed by: cddbd v1.5.1PL0 Copyright (c) Steve Scherf et al.
# Submitted via: CDex 1.51
#
DISCID=090ed114
DTITLE=Shorty Rogers - The Sweetheart of Sigmuns Freud - Disc Two
DYEAR=2004
DGENRE=Jazz
TTITLE0=Powder Puff
TTITLE1=The Pesky Serpent
TTITLE2=Bunny
TTITLE3=Pirouette
TTITLE4=Morpo
TTITLE5=Diablo's Dance
TTITLE6=Mambo Del Crow
TTITLE7=Indian Club
TTITLE8=Coop De Grace
TTITLE9=Infinity Promenade
TTITLE10=Short Stop
TTITLE11=Boar-Jibu
TTITLE12=Contours
TTITLE13=Tale Of An African Lobster
TTITLE14=Chiquito Loco
TTITLE15=Sweetheart Of Sigmund Freud
TTITLE16=Blues For Brando
TTITLE17=Chino
TTITLE18=The Wild One
TTITLE19=Windswept
EXTD=YEAR: 2004
EXTT0=
EXTT1=
EXTT2=
EXTT3=
EXTT4=
EXTT5=
EXTT6=
EXTT7=
EXTT8=
EXTT9=
EXTT10=
EXTT11=
EXTT12=
EXTT13=
EXTT14=
EXTT15=
EXTT16=
EXTT17=
EXTT18=
EXTT19=
PLAYORDER=
